<svg xmlns="http://www.w3.org/2000/svg" viewBox="0 0 210.01 45.94"><defs><style>.cls-1{fill:#286675;}.cls-2{fill:#e27126;}</style></defs><title>Asset 1</title><g id="Layer_2" data-name="Layer 2"><g id="Layer_1-2" data-name="Layer 1"><path class="cls-1" d="M0,41V8.43C0,5.06,1.88,3.11,5,3.11H16c11.1,0,17.26,4.93,17.26,14.21S27.32,31.47,16,31.47H9.6V41c0,2.73-1.42,4.35-4.15,4.35H4C1.49,45.35,0,43.86,0,41ZM9.47,24.27h6.36c5.26,0,8-2.47,8-6.88s-2.79-6.81-8.11-6.81H9.47Z"/><path class="cls-1" d="M34.37,29.52c0-9.67,6.94-16.8,16.54-16.8,9.35,0,15.77,6.55,15.77,15.83v.65c-.07,1.62-.52,2.53-2.21,2.53H42.61c.65,4.73,4.28,7.52,9.21,7.52s7.46-2.14,9-4.67c.06-.13,4.41.46,4.41,4.09,0,3.44-4.87,7.27-13.69,7.27C41.18,45.94,34.37,39.51,34.37,29.52Zm8.24-3.11H58.18c-.19-4.42-3-7.34-7.4-7.34A8.21,8.21,0,0,0,42.61,26.41Z"/><path class="cls-1" d="M67.61,17.39V16.8c0-2.2,1.23-3.37,3.83-3.37H73v-4C73,6.42,74.55,5,77.15,5h.78C80.39,5,82,6,82,9.41v4h5.52c2.59,0,3.7,1.1,3.7,3.24v.52c0,2.21-1.17,3.38-3.77,3.38H81.82V34.06c0,3.12,1,4.67,3.5,4.67a5,5,0,0,0,4.09-2.14c.13-.19,2.21,1,2.21,3.57,0,3.18-3.18,5.78-8.37,5.78-7,0-10.25-3.7-10.25-10.84V20.57H71.44C68.84,20.57,67.61,19.46,67.61,17.39Z"/><path class="cls-2" d="M102.94,41.78,93.08,5.9c-.13-.45,1.88-3,5.84-3,2.14,0,4.54,1.17,5.32,5.25l5.32,25,6.35-21.87c.65-2.53,2.67-3.82,5.71-3.82s4.87,1.36,5.52,3.82l6.29,21.8L138.82,8c.71-3.76,2.85-5.19,5.25-5.19,3.7,0,5.65,2.6,5.52,3.05l-9.67,35.88c-.65,2.79-2.53,3.7-5.9,3.7s-5.06-.91-5.91-3.7L121.5,19.07l-6.88,22.71c-.72,2.73-2.6,3.7-5.84,3.7S103.65,44.64,102.94,41.78Z"/><path class="cls-2" d="M148.69,29.52c0-9.67,6.94-16.8,16.54-16.8,9.35,0,15.77,6.55,15.77,15.83v.65c-.06,1.62-.52,2.53-2.21,2.53H156.93c.65,4.73,4.28,7.52,9.21,7.52s7.46-2.14,9-4.67c.06-.13,4.41.46,4.41,4.09,0,3.44-4.87,7.27-13.69,7.27C155.5,45.94,148.69,39.51,148.69,29.52Zm8.24-3.11H172.5c-.19-4.42-3-7.34-7.4-7.34A8.21,8.21,0,0,0,156.93,26.41Z"/><path class="cls-2" d="M185.47,41V1c0-.33,1.63-1,3.44-1,2.73,0,5.71,1.43,5.71,7.33V41c0,3.31-1.68,4.35-4,4.35h-1C187.23,45.35,185.47,44.38,185.47,41Z"/><path class="cls-2" d="M200.86,41V1c0-.33,1.63-1,3.44-1C207,0,210,1.43,210,7.33V41c0,3.31-1.68,4.35-4,4.35h-1C202.62,45.35,200.86,44.38,200.86,41Z"/></g></g></svg>